<svg xmlns="http://www.w3.org/2000/svg" viewBox="200.8 1319.836 213.48 110.38">
  <g id="Group_6" data-name="Group 6" transform="translate(0 1240)">
    <path id="Path_3" data-name="Path 3" d="M14.292.432a12.258,12.258,0,0,0,12.492-12.42,12.258,12.258,0,0,0-12.492-12.42A12.258,12.258,0,0,0,1.8-11.988,12.258,12.258,0,0,0,14.292.432Zm0-22.32a9.8,9.8,0,0,1,9.756,9.9,9.8,9.8,0,0,1-9.756,9.9,9.8,9.8,0,0,1-9.756-9.9A9.8,9.8,0,0,1,14.292-21.888ZM37.08-24.012V0h9.288V-2.52H39.744V-24.012ZM66.636-9.54h7.128a7.594,7.594,0,0,1-.972,3.42,8.356,8.356,0,0,1-7.344,4.032,9.624,9.624,0,0,1-9.756-9.864,9.6,9.6,0,0,1,9.828-9.936,8.816,8.816,0,0,1,5.832,2.016,12.685,12.685,0,0,1,2.268,2.484l1.98-1.8a14.693,14.693,0,0,0-2.772-2.844,11.955,11.955,0,0,0-7.344-2.376,12.245,12.245,0,0,0-12.528,12.42A12.207,12.207,0,0,0,65.412.432a10.774,10.774,0,0,0,8.928-4.32,13.23,13.23,0,0,0,2.3-7.6v-.576H66.636ZM103,0h2.952L95.184-25.164,84.132,0h2.952l2.88-6.768h10.224ZM91.008-9.288l4.1-9.612,4.032,9.612ZM3.1,25.988V50H9.072a8.76,8.76,0,0,0,5.76-1.584,6.636,6.636,0,0,0,2.448-5.184,6.02,6.02,0,0,0-4.572-6.048,5.418,5.418,0,0,0,2.376-4.716,5.968,5.968,0,0,0-2.16-4.968,8.916,8.916,0,0,0-5.508-1.512Zm2.664,2.52H7.848c.756,0,4.644.072,4.644,4.032,0,3.708-3.312,4-4.716,4H5.76Zm0,10.4H8.5a8.371,8.371,0,0,1,4.068.72,3.891,3.891,0,0,1,2.052,3.528,4.047,4.047,0,0,1-1.584,3.312A6.638,6.638,0,0,1,8.82,47.48H5.76Zm33.012,11.52a12.42,12.42,0,1,0,0-24.84,12.42,12.42,0,1,0,0,24.84Zm0-22.32a9.9,9.9,0,1,1-9.756,9.9A9.8,9.8,0,0,1,38.772,28.112ZM73.944,40.46h7.128a7.594,7.594,0,0,1-.972,3.42,8.356,8.356,0,0,1-7.344,4.032A9.624,9.624,0,0,1,63,38.048a9.6,9.6,0,0,1,9.828-9.936,8.816,8.816,0,0,1,5.832,2.016,12.685,12.685,0,0,1,2.268,2.484l1.98-1.8a14.693,14.693,0,0,0-2.772-2.844,11.955,11.955,0,0,0-7.344-2.376,12.245,12.245,0,0,0-12.528,12.42A12.207,12.207,0,0,0,72.72,50.432a10.774,10.774,0,0,0,8.928-4.32,13.23,13.23,0,0,0,2.3-7.6V37.94H73.944ZM110.3,50h2.952L102.492,24.836,91.44,50h2.952l2.88-6.768H107.5ZM98.316,40.712l4.1-9.612,4.032,9.612Zm33.84-12.2v-2.52H117.828v2.52h5.832V50h2.664V28.508Zm18.936,21.924A12.42,12.42,0,1,0,138.6,38.012,12.258,12.258,0,0,0,151.092,50.432Zm0-22.32a9.9,9.9,0,1,1-9.756,9.9A9.8,9.8,0,0,1,151.092,28.112Zm18.828-2.124,9.72,25.452,9.72-25.452h-2.952L179.64,44.312l-6.768-18.324ZM212.328,50h2.952L204.516,24.836,193.464,50h2.952l2.88-6.768H209.52ZM200.34,40.712l4.1-9.612,4.032,9.612Z" transform="translate(199 105)"/>
    <path id="Path_4" data-name="Path 4" d="M7.074-6.93a3.957,3.957,0,0,0-2.322-.72,3.859,3.859,0,0,0-4,3.96,3.826,3.826,0,0,0,4,3.906A3.99,3.99,0,0,0,7.128-.558V-2.106A3.185,3.185,0,0,1,4.716-.936,2.6,2.6,0,0,1,2.088-3.708,2.6,2.6,0,0,1,4.734-6.5a3.013,3.013,0,0,1,2.34,1.116Zm10.458.522A3.091,3.091,0,0,0,14.976-7.65,3.59,3.59,0,0,0,11.34-3.744,3.617,3.617,0,0,0,14.976.216a3.151,3.151,0,0,0,2.556-1.26V0h1.3V-7.47h-1.3ZM15.12-6.5A2.53,2.53,0,0,1,17.6-3.726,2.555,2.555,0,0,1,15.12-.936c-1.548,0-2.448-1.206-2.448-2.808A2.483,2.483,0,0,1,15.12-6.5Zm8.856-6.624V0h1.3V-3.078L25.6-3.4,28.584,0h1.692L26.5-4.266l3.2-3.2H28.008L25.272-4.7v-8.424ZM39.636-2.5a2.976,2.976,0,0,1-.774,1.026,2.271,2.271,0,0,1-1.53.54,2.393,2.393,0,0,1-2.376-2.538H40.77a5.015,5.015,0,0,0-.7-2.808A3.342,3.342,0,0,0,37.242-7.65c-2.25,0-3.618,1.728-3.618,3.96A3.575,3.575,0,0,0,37.314.216,3.626,3.626,0,0,0,39.8-.7a4.469,4.469,0,0,0,.918-1.206Zm-4.59-2.052a2.27,2.27,0,0,1,2.2-1.944,2.236,2.236,0,0,1,2.2,1.944ZM58.194-6.93a3.957,3.957,0,0,0-2.322-.72,3.859,3.859,0,0,0-4,3.96,3.826,3.826,0,0,0,4,3.906,3.99,3.99,0,0,0,2.376-.774V-2.106a3.185,3.185,0,0,1-2.412,1.17,2.6,2.6,0,0,1-2.628-2.772A2.6,2.6,0,0,1,55.854-6.5a3.013,3.013,0,0,1,2.34,1.116ZM66.42.216a3.831,3.831,0,0,0,3.96-3.924A3.836,3.836,0,0,0,66.42-7.65a3.836,3.836,0,0,0-3.96,3.942A3.831,3.831,0,0,0,66.42.216Zm0-6.714a2.586,2.586,0,0,1,2.628,2.79A2.59,2.59,0,0,1,66.42-.936a2.589,2.589,0,0,1-2.628-2.772A2.6,2.6,0,0,1,66.42-6.5Zm9.936-.972h-1.3v4.5a2.969,2.969,0,0,0,.684,2.25A3.121,3.121,0,0,0,78.03.216,3.121,3.121,0,0,0,80.316-.72,2.969,2.969,0,0,0,81-2.97v-4.5H79.7v4.356a2.543,2.543,0,0,1-.36,1.6,1.586,1.586,0,0,1-1.314.576,1.586,1.586,0,0,1-1.314-.576,2.543,2.543,0,0,1-.36-1.6ZM86.148,0h1.3V-3.942a3.223,3.223,0,0,1,.432-2.016,1.255,1.255,0,0,1,1.044-.468,1.333,1.333,0,0,1,.756.252l.612-1.17a2.737,2.737,0,0,0-1.152-.306,2.076,2.076,0,0,0-1.692.99v-.81h-1.3Zm11.97-6.3a2.155,2.155,0,0,0-2.052-1.35,2.008,2.008,0,0,0-2.178,2.088,1.622,1.622,0,0,0,.342,1.1,4.873,4.873,0,0,0,1.818,1.1c.7.306,1.206.54,1.206,1.242A1.159,1.159,0,0,1,96.03-.936,1.69,1.69,0,0,1,94.518-2.16L93.4-1.692A2.671,2.671,0,0,0,96.012.216a2.376,2.376,0,0,0,2.574-2.448,1.768,1.768,0,0,0-.4-1.206A4.542,4.542,0,0,0,96.318-4.59c-.846-.36-1.206-.522-1.206-1.062a.825.825,0,0,1,.9-.846,1.145,1.145,0,0,1,1.044.756Zm10.44,3.8a2.976,2.976,0,0,1-.774,1.026,2.271,2.271,0,0,1-1.53.54,2.393,2.393,0,0,1-2.376-2.538h5.814a5.015,5.015,0,0,0-.7-2.808,3.342,3.342,0,0,0-2.826-1.368c-2.25,0-3.618,1.728-3.618,3.96a3.575,3.575,0,0,0,3.69,3.906A3.626,3.626,0,0,0,108.72-.7a4.469,4.469,0,0,0,.918-1.206Zm-4.59-2.052a2.27,2.27,0,0,1,2.2-1.944,2.236,2.236,0,0,1,2.2,1.944ZM118.512-6.3a2.155,2.155,0,0,0-2.052-1.35,2.008,2.008,0,0,0-2.178,2.088,1.622,1.622,0,0,0,.342,1.1,4.873,4.873,0,0,0,1.818,1.1c.7.306,1.206.54,1.206,1.242a1.159,1.159,0,0,1-1.224,1.188,1.69,1.69,0,0,1-1.512-1.224l-1.116.468a2.671,2.671,0,0,0,2.61,1.908,2.376,2.376,0,0,0,2.574-2.448,1.768,1.768,0,0,0-.4-1.206,4.542,4.542,0,0,0-1.872-1.152c-.846-.36-1.206-.522-1.206-1.062a.825.825,0,0,1,.9-.846,1.145,1.145,0,0,1,1.044.756Z" transform="translate(202 190)"/>
  </g>
</svg>
