<svg id="Group_5" data-name="Group 5" xmlns="http://www.w3.org/2000/svg" viewBox="855.312 162.836 212.184 110.38">
  <path id="Path_1" data-name="Path 1" d="M-38.826.432a12.258,12.258,0,0,0,12.492-12.42,12.258,12.258,0,0,0-12.492-12.42,12.258,12.258,0,0,0-12.492,12.42A12.258,12.258,0,0,0-38.826.432Zm0-22.32a9.8,9.8,0,0,1,9.756,9.9,9.8,9.8,0,0,1-9.756,9.9,9.8,9.8,0,0,1-9.756-9.9A9.8,9.8,0,0,1-38.826-21.888Zm22.788-2.124V0H-6.75V-2.52h-6.624V-24.012ZM13.518-9.54h7.128a7.594,7.594,0,0,1-.972,3.42A8.356,8.356,0,0,1,12.33-2.088a9.624,9.624,0,0,1-9.756-9.864A9.6,9.6,0,0,1,12.4-21.888a8.816,8.816,0,0,1,5.832,2.016A12.685,12.685,0,0,1,20.5-17.388l1.98-1.8a14.693,14.693,0,0,0-2.772-2.844,11.955,11.955,0,0,0-7.344-2.376A12.245,12.245,0,0,0-.162-11.988,12.207,12.207,0,0,0,12.294.432a10.774,10.774,0,0,0,8.928-4.32,13.231,13.231,0,0,0,2.3-7.6v-.576H13.518ZM49.878,0H52.83L42.066-25.164,31.014,0h2.952l2.88-6.768H47.07ZM37.89-9.288l4.1-9.612,4.032,9.612ZM-104.688,25.988V50h5.976a8.76,8.76,0,0,0,5.76-1.584A6.636,6.636,0,0,0-90.5,43.232a6.02,6.02,0,0,0-4.572-6.048A5.418,5.418,0,0,0-92.7,32.468,5.968,5.968,0,0,0-94.86,27.5a8.916,8.916,0,0,0-5.508-1.512Zm2.664,2.52h2.088c.756,0,4.644.072,4.644,4.032,0,3.708-3.312,4-4.716,4h-2.016Zm0,10.4h2.736a8.371,8.371,0,0,1,4.068.72,3.891,3.891,0,0,1,2.052,3.528,4.047,4.047,0,0,1-1.584,3.312,6.638,6.638,0,0,1-4.212,1.008h-3.06Zm33.012,11.52A12.258,12.258,0,0,0-56.52,38.012a12.258,12.258,0,0,0-12.492-12.42A12.258,12.258,0,0,0-81.5,38.012,12.258,12.258,0,0,0-69.012,50.432Zm0-22.32a9.8,9.8,0,0,1,9.756,9.9,9.8,9.8,0,0,1-9.756,9.9,9.8,9.8,0,0,1-9.756-9.9A9.8,9.8,0,0,1-69.012,28.112ZM-33.84,40.46h7.128a7.594,7.594,0,0,1-.972,3.42,8.356,8.356,0,0,1-7.344,4.032,9.624,9.624,0,0,1-9.756-9.864,9.6,9.6,0,0,1,9.828-9.936,8.816,8.816,0,0,1,5.832,2.016,12.685,12.685,0,0,1,2.268,2.484l1.98-1.8a14.693,14.693,0,0,0-2.772-2.844,11.955,11.955,0,0,0-7.344-2.376A12.245,12.245,0,0,0-47.52,38.012a12.207,12.207,0,0,0,12.456,12.42,10.774,10.774,0,0,0,8.928-4.32,13.23,13.23,0,0,0,2.3-7.6V37.94H-33.84ZM2.52,50H5.472L-5.292,24.836-16.344,50h2.952l2.88-6.768H-.288ZM-9.468,40.712l4.1-9.612,4.032,9.612Zm33.84-12.2v-2.52H10.044v2.52h5.832V50H18.54V28.508ZM43.308,50.432a12.42,12.42,0,1,0,0-24.84,12.42,12.42,0,1,0,0,24.84Zm0-22.32a9.9,9.9,0,1,1-9.756,9.9A9.8,9.8,0,0,1,43.308,28.112Zm18.828-2.124,9.72,25.452,9.72-25.452H78.624L71.856,44.312,65.088,25.988ZM104.544,50H107.5L96.732,24.836,85.68,50h2.952l2.88-6.768h10.224ZM92.556,40.712l4.1-9.612,4.032,9.612Z" transform="translate(960 188)"/>
  <path id="Path_2" data-name="Path 2" d="M-52.668-6.93a3.957,3.957,0,0,0-2.322-.72,3.859,3.859,0,0,0-4,3.96,3.826,3.826,0,0,0,4,3.906,3.99,3.99,0,0,0,2.376-.774V-2.106a3.185,3.185,0,0,1-2.412,1.17,2.6,2.6,0,0,1-2.628-2.772A2.6,2.6,0,0,1-55.008-6.5a3.013,3.013,0,0,1,2.34,1.116Zm10.458.522A3.091,3.091,0,0,0-44.766-7.65,3.59,3.59,0,0,0-48.4-3.744,3.617,3.617,0,0,0-44.766.216a3.151,3.151,0,0,0,2.556-1.26V0h1.3V-7.47h-1.3Zm-2.412-.09a2.53,2.53,0,0,1,2.484,2.772,2.555,2.555,0,0,1-2.484,2.79c-1.548,0-2.448-1.206-2.448-2.808A2.483,2.483,0,0,1-44.622-6.5Zm8.856-6.624V0h1.3V-3.078l.324-.324L-31.158,0h1.692l-3.78-4.266,3.2-3.2h-1.692L-34.47-4.7v-8.424ZM-20.106-2.5a2.976,2.976,0,0,1-.774,1.026,2.271,2.271,0,0,1-1.53.54,2.393,2.393,0,0,1-2.376-2.538h5.814a5.015,5.015,0,0,0-.7-2.808A3.342,3.342,0,0,0-22.5-7.65c-2.25,0-3.618,1.728-3.618,3.96A3.575,3.575,0,0,0-22.428.216,3.626,3.626,0,0,0-19.944-.7a4.469,4.469,0,0,0,.918-1.206ZM-24.7-4.554A2.27,2.27,0,0,1-22.5-6.5a2.236,2.236,0,0,1,2.2,1.944ZM-1.548-6.93A3.957,3.957,0,0,0-3.87-7.65a3.859,3.859,0,0,0-4,3.96,3.826,3.826,0,0,0,4,3.906A3.99,3.99,0,0,0-1.494-.558V-2.106A3.185,3.185,0,0,1-3.906-.936,2.6,2.6,0,0,1-6.534-3.708,2.6,2.6,0,0,1-3.888-6.5a3.013,3.013,0,0,1,2.34,1.116ZM6.678.216a3.831,3.831,0,0,0,3.96-3.924A3.836,3.836,0,0,0,6.678-7.65a3.836,3.836,0,0,0-3.96,3.942A3.831,3.831,0,0,0,6.678.216Zm0-6.714a2.586,2.586,0,0,1,2.628,2.79A2.59,2.59,0,0,1,6.678-.936,2.589,2.589,0,0,1,4.05-3.708,2.6,2.6,0,0,1,6.678-6.5Zm9.936-.972h-1.3v4.5A2.969,2.969,0,0,0,16-.72a3.121,3.121,0,0,0,2.286.936A3.121,3.121,0,0,0,20.574-.72a2.969,2.969,0,0,0,.684-2.25v-4.5h-1.3v4.356a2.543,2.543,0,0,1-.36,1.6,1.586,1.586,0,0,1-1.314.576,1.586,1.586,0,0,1-1.314-.576,2.543,2.543,0,0,1-.36-1.6ZM26.406,0h1.3V-3.942a3.223,3.223,0,0,1,.432-2.016,1.255,1.255,0,0,1,1.044-.468,1.333,1.333,0,0,1,.756.252l.612-1.17a2.737,2.737,0,0,0-1.152-.306,2.076,2.076,0,0,0-1.692.99v-.81h-1.3Zm11.97-6.3a2.155,2.155,0,0,0-2.052-1.35,2.008,2.008,0,0,0-2.178,2.088,1.622,1.622,0,0,0,.342,1.1,4.873,4.873,0,0,0,1.818,1.1c.7.306,1.206.54,1.206,1.242A1.159,1.159,0,0,1,36.288-.936,1.69,1.69,0,0,1,34.776-2.16l-1.116.468A2.671,2.671,0,0,0,36.27.216a2.376,2.376,0,0,0,2.574-2.448,1.768,1.768,0,0,0-.4-1.206A4.542,4.542,0,0,0,36.576-4.59c-.846-.36-1.206-.522-1.206-1.062a.825.825,0,0,1,.9-.846,1.145,1.145,0,0,1,1.044.756Zm10.44,3.8a2.976,2.976,0,0,1-.774,1.026,2.271,2.271,0,0,1-1.53.54,2.393,2.393,0,0,1-2.376-2.538H49.95a5.015,5.015,0,0,0-.7-2.808A3.342,3.342,0,0,0,46.422-7.65c-2.25,0-3.618,1.728-3.618,3.96A3.575,3.575,0,0,0,46.494.216,3.626,3.626,0,0,0,48.978-.7,4.469,4.469,0,0,0,49.9-1.908Zm-4.59-2.052a2.27,2.27,0,0,1,2.2-1.944,2.236,2.236,0,0,1,2.2,1.944ZM58.77-6.3a2.155,2.155,0,0,0-2.052-1.35A2.008,2.008,0,0,0,54.54-5.562a1.622,1.622,0,0,0,.342,1.1,4.873,4.873,0,0,0,1.818,1.1c.7.306,1.206.54,1.206,1.242A1.159,1.159,0,0,1,56.682-.936,1.69,1.69,0,0,1,55.17-2.16l-1.116.468A2.671,2.671,0,0,0,56.664.216a2.376,2.376,0,0,0,2.574-2.448,1.768,1.768,0,0,0-.4-1.206A4.542,4.542,0,0,0,56.97-4.59c-.846-.36-1.206-.522-1.206-1.062a.825.825,0,0,1,.9-.846,1.145,1.145,0,0,1,1.044.756Z" transform="translate(960 273)"/>
</svg>
